<?xml version="1.0" encoding="UTF-8"?>
<!DOCTYPE svg PUBLIC "-//W3C//DTD SVG 1.1//EN" "http://www.w3.org/Graphics/SVG/1.1/DTD/svg11.dtd">
<!-- Creator: CorelDRAW 2020 (64-Bit) -->
<svg xmlns="http://www.w3.org/2000/svg" xml:space="preserve" width="120px" height="120px" version="1.1" style="shape-rendering:geometricPrecision; text-rendering:geometricPrecision; image-rendering:optimizeQuality; fill-rule:evenodd; clip-rule:evenodd"
viewBox="0 0 120 120"
 xmlns:xlink="http://www.w3.org/1999/xlink"
 xmlns:xodm="http://www.corel.com/coreldraw/odm/2003">
 <defs>
  <style type="text/css">
   <![CDATA[
    .fil0 {fill:#E31E24}
    .fil1 {fill:#FEFEFE;fill-rule:nonzero}
   ]]>
  </style>
 </defs>
 <g id="Слой_x0020_1">
  <metadata id="CorelCorpID_0Corel-Layer"/>
  <rect class="fil0" x="-0.84" y="0.06" width="120" height="120" rx="24" ry="24"/>
  <path class="fil1" d="M47.6 22.49l4.12 0 39.08 0 0 13.4 -39.08 0 -4.12 0 0 4.26 0 14.13 21.39 0c5.89,0 10.8,0.72 14.68,2.16 3.9,1.44 7.22,4.1 9.97,7.99 2.75,3.88 4.13,8.44 4.13,13.66 0,5.36 -1.38,9.95 -4.17,13.77 -2.77,3.81 -5.92,6.43 -9.49,7.83 -3.54,1.4 -8.6,2.11 -15.15,2.11l-24.56 0 -12.86 0 -11 0 0 -13.41 11 0 0 -20.71 -11 0 0 -13.4 11 0 0 -14.13 0 -4.26 -11 0 0 -13.4 11 0 0 -4.16 16.06 0 0 4.16zm0 65.9l15.56 0c4.97,0 8.47,-0.24 10.49,-0.72 2.01,-0.48 3.78,-1.57 5.28,-3.28 1.49,-1.7 2.23,-3.81 2.23,-6.3 0,-3.63 -1.31,-6.28 -3.91,-7.94 -2.63,-1.64 -7.07,-2.47 -13.39,-2.47l-16.26 0 0 20.71z"/>
 </g>
</svg>
